<?xml version="1.0" encoding="utf-8"?>
<!-- Generator: Adobe Illustrator 26.0.1, SVG Export Plug-In . SVG Version: 6.00 Build 0)  -->
<svg version="1.1" id="Слой_1" xmlns="http://www.w3.org/2000/svg" xmlns:xlink="http://www.w3.org/1999/xlink" x="0px" y="0px"
	 viewBox="0 0 1080 1080" style="enable-background:new 0 0 1080 1080;" xml:space="preserve">
<style type="text/css">
	.st0{fill:#FFFFFF;}
	.st1{fill:#ED1C24;}
	.st2{fill:none;stroke:#000000;stroke-width:3;stroke-linecap:round;stroke-miterlimit:10;}
	.st3{fill:none;stroke:#000000;stroke-width:6;stroke-linecap:round;stroke-miterlimit:10;}
	.st4{fill:none;stroke:#ED1C24;stroke-width:6;stroke-linecap:round;stroke-miterlimit:10;}
	.st5{fill:none;stroke:#000000;stroke-width:7;stroke-miterlimit:10;}
	.st6{font-family:'Primus-SemiBoldItalic';}
	.st7{font-size:52.3522px;}
	.st8{fill:none;stroke:#FFFFFF;stroke-width:3;stroke-miterlimit:10;}
</style>
<g>
	<path d="M244.77,462.79c-5.15,2.29-9.64,5.41-13.45,9.35c-3.82,3.94-6.84,8.59-9.06,13.93c-2.23,5.34-3.34,11-3.34,16.98
		c0,5.98,1.11,11.64,3.34,16.98c2.22,5.34,5.25,9.99,9.06,13.93c3.82,3.94,8.3,7.06,13.45,9.35c5.15,2.29,10.65,3.43,16.5,3.43
		h50.75v8.78h-50.75c-7,0-13.58-1.37-19.75-4.1c-6.17-2.73-11.58-6.49-16.22-11.26c-4.65-4.77-8.3-10.33-10.97-16.7
		c-2.67-6.36-4.01-13.17-4.01-20.42s1.34-14.05,4.01-20.42c2.67-6.36,6.33-11.92,10.97-16.69c4.64-4.77,10.05-8.52,16.22-11.26
		c6.17-2.73,12.75-4.1,19.75-4.1h50.75v8.78h-50.75C255.42,459.35,249.92,460.5,244.77,462.79z M256.89,507.44v-8.78h55.14v8.78
		H256.89z"/>
	<path d="M331.49,482.44c2.8-6.36,6.58-11.93,11.35-16.7s10.33-8.52,16.7-11.26c6.36-2.73,13.17-4.1,20.42-4.1h52.47v8.78h-52.47
		c-6.11,0-11.8,1.14-17.08,3.43c-5.28,2.29-9.92,5.41-13.93,9.35c-4.01,3.94-7.15,8.59-9.44,13.93c-2.29,5.34-3.43,11-3.43,16.98
		c0,6.11,1.15,11.8,3.43,17.08c2.29,5.28,5.44,9.92,9.44,13.93s8.65,7.15,13.93,9.44c5.28,2.29,10.97,3.43,17.08,3.43h52.47v8.78
		h-52.47c-7.25,0-14.06-1.4-20.42-4.2c-6.36-2.8-11.93-6.58-16.7-11.35s-8.56-10.33-11.35-16.7c-2.8-6.36-4.2-13.17-4.2-20.42
		S328.69,488.8,331.49,482.44z"/>
	<path d="M436.53,482.63c2.73-6.36,6.49-11.92,11.26-16.69s10.33-8.52,16.7-11.26c6.36-2.73,13.17-4.1,20.42-4.1
		s14.05,1.37,20.42,4.1c6.36,2.74,11.92,6.49,16.69,11.26s8.52,10.34,11.26,16.69c2.73,6.36,4.1,13.17,4.1,20.42
		s-1.37,14.06-4.1,20.42c-2.74,6.36-6.49,11.93-11.26,16.7s-10.34,8.52-16.69,11.26c-6.36,2.74-13.17,4.1-20.42,4.1
		s-14.06-1.37-20.42-4.1c-6.36-2.73-11.93-6.49-16.7-11.26s-8.52-10.33-11.26-16.7c-2.74-6.36-4.1-13.17-4.1-20.42
		S433.79,488.99,436.53,482.63z M501.88,543.31c5.34-2.29,9.98-5.4,13.93-9.35c3.94-3.94,7.06-8.59,9.35-13.93
		c2.29-5.34,3.43-11,3.43-16.98c0-5.98-1.14-11.64-3.43-16.98s-5.41-9.98-9.35-13.93c-3.94-3.94-8.59-7.06-13.93-9.35
		s-11-3.43-16.98-3.43c-5.98,0-11.64,1.14-16.98,3.43c-5.34,2.29-9.99,5.41-13.93,9.35c-3.94,3.94-7.06,8.59-9.35,13.93
		s-3.43,11-3.43,16.98c0,5.98,1.15,11.64,3.43,16.98c2.29,5.34,5.4,9.99,9.35,13.93c3.94,3.94,8.59,7.06,13.93,9.35
		c5.34,2.29,11,3.43,16.98,3.43C490.87,546.74,496.54,545.6,501.88,543.31z"/>
	<path d="M609.3,450.77v8.78h-4.39c-5.98,0-11.61,1.15-16.89,3.43c-5.28,2.29-9.89,5.41-13.83,9.35c-3.94,3.94-7.06,8.59-9.35,13.93
		c-2.29,5.34-3.43,11-3.43,16.98v52.28h-8.78v-52.28c0-7.25,1.37-14.05,4.1-20.42c2.73-6.36,6.49-11.92,11.26-16.69
		c4.77-4.77,10.3-8.52,16.6-11.26c6.3-2.73,13.07-4.1,20.32-4.1H609.3z"/>
	<path d="M632.76,450.58v104.94h-8.2V450.58H632.76z"/>
	<path d="M752.78,507.44c-0.51,6.74-2.26,13.04-5.25,18.89c-2.99,5.85-6.81,10.94-11.45,15.26c-4.64,4.33-10.02,7.73-16.12,10.21
		c-6.11,2.48-12.59,3.72-19.46,3.72c-7.25,0-14.06-1.37-20.42-4.1c-6.36-2.73-11.92-6.49-16.7-11.26
		c-4.77-4.77-8.52-10.33-11.26-16.7c-2.74-6.36-4.1-13.17-4.1-20.42s1.37-14.05,4.1-20.42c2.73-6.36,6.49-11.92,11.26-16.69
		c4.77-4.77,10.33-8.52,16.7-11.26c6.36-2.73,13.17-4.1,20.42-4.1c9.16,0,17.52,2.13,25.09,6.39c7.57,4.26,13.77,9.95,18.6,17.08
		v-71.55h8.59V507.44z M717.48,543.31c5.34-2.29,9.98-5.4,13.93-9.35c3.94-3.94,7.06-8.59,9.35-13.93c2.29-5.34,3.43-11,3.43-16.98
		c0-5.98-1.15-11.64-3.43-16.98c-2.29-5.34-5.41-9.98-9.35-13.93c-3.94-3.94-8.59-7.06-13.93-9.35c-5.34-2.29-11-3.43-16.98-3.43
		c-5.98,0-11.64,1.14-16.98,3.43c-5.34,2.29-9.99,5.41-13.93,9.35c-3.94,3.94-7.06,8.59-9.35,13.93c-2.29,5.34-3.43,11-3.43,16.98
		c0,5.98,1.15,11.64,3.43,16.98c2.29,5.34,5.41,9.99,9.35,13.93c3.94,3.94,8.59,7.06,13.93,9.35c5.34,2.29,11,3.43,16.98,3.43
		C706.47,546.74,712.14,545.6,717.48,543.31z"/>
	<path d="M802.48,462.79c-5.15,2.29-9.64,5.41-13.45,9.35c-3.82,3.94-6.84,8.59-9.06,13.93c-2.23,5.34-3.34,11-3.34,16.98
		c0,5.98,1.11,11.64,3.34,16.98c2.22,5.34,5.25,9.99,9.06,13.93c3.82,3.94,8.3,7.06,13.45,9.35s10.65,3.43,16.5,3.43h50.75v8.78
		h-50.75c-7,0-13.58-1.37-19.75-4.1c-6.17-2.73-11.58-6.49-16.22-11.26c-4.64-4.77-8.3-10.33-10.97-16.7
		c-2.67-6.36-4.01-13.17-4.01-20.42s1.34-14.05,4.01-20.42c2.67-6.36,6.33-11.92,10.97-16.69c4.64-4.77,10.05-8.52,16.22-11.26
		c6.17-2.73,12.75-4.1,19.75-4.1h50.75v8.78h-50.75C813.13,459.35,807.63,460.5,802.48,462.79z M814.6,507.44v-8.78h55.14v8.78
		H814.6z"/>
</g>
<path class="st0" d="M1485.17,997.5h-263.33c-36.08,0-65.33-29.25-65.33-65.33V668.83c0-36.08,29.25-65.33,65.33-65.33h263.33
	c36.08,0,65.33,29.25,65.33,65.33v263.33C1550.5,968.25,1521.25,997.5,1485.17,997.5z"/>
<g>
	<path class="st1" d="M1807.59,305h-61.2c-12.56,0-22.52-4.48-29.87-13.44c-2.46-2.86-4.4-5.94-5.81-9.25
		c-3.44-8.06-2.93-15.37-2.66-18.74c0.15-1.78,0.38-3.25,0.56-4.26c4-22.54,7.99-45.07,11.99-67.61
		c2.36-12.68,8.81-23.43,19.35-32.25c10.22-8.96,21.74-13.44,34.56-13.44h60.79c3.31,0,5.93,1.17,7.86,3.51
		c1.93,2.35,2.55,5.1,1.86,8.27c-0.69,3.31-2.35,6.1-4.96,8.37c-2.62,2.27-5.58,3.41-8.89,3.41h-60.79
		c-6.07,0-11.65,2.17-16.75,6.52c-5.1,4.35-8.2,9.56-9.3,15.63l-3.88,21.89h76.92c3.31,0,5.93,1.17,7.86,3.51
		c1.93,2.35,2.55,5.17,1.86,8.48c-0.55,3.17-2.17,5.93-4.86,8.27c-2.69,2.35-5.69,3.51-8.99,3.51h-77l-3.89,21.94
		c-0.97,6.06,0.34,11.26,3.92,15.59c3.59,4.34,8.41,6.5,14.48,6.5h60.79c3.31,0,5.89,1.14,7.75,3.41s2.51,5.07,1.96,8.37
		c-0.69,3.17-2.35,5.93-4.96,8.27C1813.65,303.83,1810.76,305,1807.59,305z"/>
</g>
<path class="st1" d="M1631.05,389.65c-6.19,9.94-12.9,14.44-17.94,16.72c-6.61,2.99-13.58,3.61-24.32,4.56
	c-13.54,1.2-19.55,0.1-22.8,4.56c-1.81,2.48-2.62,6.48-0.91,9.73c1.64,3.12,5.31,4.99,9.42,4.86c31.21,0.3,62.42,0.61,93.64,0.91
	C1655.78,417.22,1643.41,403.44,1631.05,389.65z"/>
<path class="st1" d="M1699.18,302.55h-55.03c-4.11,0-7.45-3.33-7.45-7.45l0,0c0-4.11,3.33-7.45,7.45-7.45h55.03
	c4.11,0,7.45,3.33,7.45,7.45l0,0C1706.63,299.22,1703.3,302.55,1699.18,302.55z"/>
<path class="st1" d="M1664.26,276.84h-55.03c-4.11,0-7.45-3.33-7.45-7.45l0,0c0-4.11,3.33-7.45,7.45-7.45h55.03
	c4.11,0,7.45,3.33,7.45,7.45l0,0C1671.71,273.5,1668.38,276.84,1664.26,276.84z"/>
<path class="st1" d="M1704.26,203.84h-55.03c-4.11,0-7.45-3.33-7.45-7.45v0c0-4.11,3.33-7.45,7.45-7.45h55.03
	c4.11,0,7.45,3.33,7.45,7.45v0C1711.71,200.5,1708.38,203.84,1704.26,203.84z"/>
<path class="st1" d="M1631.59,226.87h-55.03c-4.11,0-7.45-3.33-7.45-7.45v0c0-4.11,3.33-7.45,7.45-7.45h55.03
	c4.11,0,7.45,3.33,7.45,7.45v0C1639.04,223.53,1635.7,226.87,1631.59,226.87z"/>
<path class="st1" d="M1656.59,170.87h-55.03c-4.11,0-7.45-3.33-7.45-7.45v0c0-4.11,3.33-7.45,7.45-7.45h55.03
	c4.11,0,7.45,3.33,7.45,7.45v0C1664.04,167.53,1660.7,170.87,1656.59,170.87z"/>
<path class="st1" d="M1694.25,252.26h-29.19c-4.11,0-7.45-3.33-7.45-7.45v0c0-4.11,3.33-7.45,7.45-7.45h29.19
	c4.11,0,7.45,3.33,7.45,7.45v0C1701.69,248.93,1698.36,252.26,1694.25,252.26z"/>
<circle class="st1" cx="1636.56" cy="244.82" r="7.45"/>
<path class="st1" d="M1672.02,226.87h-10.94c-4.11,0-7.45-3.33-7.45-7.45v0c0-4.11,3.33-7.45,7.45-7.45h10.94
	c4.11,0,7.45,3.33,7.45,7.45v0C1679.47,223.53,1676.14,226.87,1672.02,226.87z"/>
<path class="st1" d="M1707.02,163.87h-10.94c-4.11,0-7.45-3.33-7.45-7.45v0c0-4.11,3.33-7.45,7.45-7.45h10.94
	c4.11,0,7.45,3.33,7.45,7.45v0C1714.47,160.53,1711.14,163.87,1707.02,163.87z"/>
<path class="st2" d="M222.5,460.5c-2.79,2.16-17.44,13.92-20,35c-2.29,18.91,6.68,32.66,9,36"/>
<path class="st2" d="M367.5,467.5c-13.83,4.47-23.7,16.73-25,31c-1.37,15.06,7.05,29.55,21,36"/>
<path class="st2" d="M1381.5,21.5c-13.83,4.47-23.7,16.73-25,31c-1.37,15.06,7.05,29.55,21,36"/>
<path class="st2" d="M690.5,469.5c-13.83,4.47-23.7,16.73-25,31c-1.37,15.06,7.05,29.55,21,36"/>
<path class="st2" d="M807.5,469.5c-13.83,4.47-23.7,16.73-25,31c-1.37,15.06,7.05,29.55,21,36"/>
<path class="st2" d="M593.5,467.5c-2.81,0.76-11.42,3.48-18,12c-6.04,7.82-6.85,16-7,19"/>
<path class="st2" d="M737.5,404.5c0,13.67,0,27.33,0,41"/>
<path class="st2" d="M618.5,486.5c0,13.67,0,27.33,0,41"/>
<path class="st2" d="M269.5,541.5c11,0,22,0,33,0"/>
<path class="st3" d="M1859.99,430.5c-6.46,5.32-32.1,27.71-38.15,66.76c-6.64,42.91,15.28,74.24,19.66,80.24"/>
<path class="st4" d="M1949.63,585c20.98,0,41.96,0,62.94,0"/>
<path class="st2" d="M825.5,493.5c11,0,22,0,33,0"/>
<circle class="st5" cx="1375.5" cy="235.5" r="83"/>
<circle class="st5" cx="1374.5" cy="235.5" r="67"/>
<circle class="st5" cx="1374.5" cy="235.5" r="16"/>
<path class="st5" d="M1366.13,169.02c-4.08,17.13-7.77,39.78-7.63,66.48c0.14,25.32,3.68,46.9,7.63,63.46"/>
<path class="st5" d="M1383.5,171.02c4.08,17.13,7.77,39.78,7.63,66.48c-0.14,25.32-3.68,46.9-7.63,63.46"/>
<path class="st5" d="M1404.7,177.06c-13.2,11.65-29.26,28.05-44.52,49.96c-14.47,20.78-24,40.47-30.31,56.28"/>
<path class="st5" d="M1419.5,185.5c-6.82,17.22-17.37,39.02-33.8,61.93c-14.66,20.44-29.91,36.06-42.78,47.49"/>
<path class="st5" d="M1430.84,268.27c-10.89-13.83-26.36-30.79-47.38-47.25c-19.93-15.62-39.05-26.23-54.48-33.43"/>
<path class="st5" d="M1421.58,282.57c-16.81-7.78-37.99-19.53-59.94-37.23c-19.59-15.79-34.32-31.89-45.01-45.38"/>
<path class="st5" d="M1308.84,244.68c17.13,4.08,39.78,7.77,66.48,7.63c25.32-0.14,46.9-3.68,63.46-7.63"/>
<path class="st5" d="M1310.84,227.31c17.13-4.08,39.78-7.77,66.48-7.63c25.32,0.14,46.9,3.68,63.46,7.63"/>
<path d="M1177.5,253h-60c-2.49,0-4.5-2.01-4.5-4.5l0,0c0-2.49,2.01-4.5,4.5-4.5h60c2.49,0,4.5,2.01,4.5,4.5l0,0
	C1182,250.99,1179.99,253,1177.5,253z"/>
<g>
	<path d="M1273.32,389.8c-7.51,3.34-14.05,7.88-19.61,13.63c-5.56,5.75-9.97,12.52-13.21,20.31c-3.25,7.79-4.87,16.04-4.87,24.76
		c0,8.72,1.62,16.97,4.87,24.76c3.24,7.79,7.65,14.56,13.21,20.31c5.56,5.75,12.1,10.29,19.61,13.63
		c7.51,3.34,15.53,5.01,24.06,5.01h74V525h-74c-10.2,0-19.8-1.99-28.79-5.98c-9-3.99-16.88-9.46-23.65-16.41
		c-6.77-6.95-12.1-15.07-16-24.34c-3.89-9.27-5.84-19.19-5.84-29.77s1.95-20.49,5.84-29.77c3.89-9.27,9.22-17.39,16-24.34
		c6.77-6.95,14.65-12.42,23.65-16.41c8.99-3.99,18.59-5.98,28.79-5.98h74v12.8h-74C1288.85,384.8,1280.83,386.47,1273.32,389.8z
		 M1290.99,454.9v-12.8h80.39v12.8H1290.99z"/>
</g>
<g>
	<path d="M1384.11,384.8h-74V372h74c10.2,0,19.8,2,28.79,5.98c9,3.99,16.88,9.46,23.65,16.41c6.77,6.95,12.1,15.07,16,24.34
		c3.89,9.28,5.84,19.19,5.84,29.77s-1.95,20.49-5.84,29.77c-3.89,9.28-9.22,17.39-16,24.34c-6.77,6.95-14.65,12.43-23.65,16.41
		c-8.99,3.99-18.59,5.98-28.79,5.98h-74v-12.8h74c8.53,0,16.55-1.67,24.06-5.01c7.51-3.34,14.05-7.88,19.61-13.63
		c5.56-5.75,9.97-12.52,13.21-20.31c3.25-7.79,4.87-16.04,4.87-24.76c0-8.71-1.62-16.97-4.87-24.76
		c-3.24-7.79-7.65-14.56-13.21-20.31c-5.56-5.75-12.1-10.29-19.61-13.63C1400.67,386.47,1392.65,384.8,1384.11,384.8z
		 M1310.12,454.9v-12.8h80.39v12.8H1310.12z"/>
</g>
<g>
	<path d="M1411.91,448.44c0,4.3-0.83,8.34-2.49,12.12c-1.66,3.78-3.91,7.08-6.74,9.91s-6.13,5.08-9.91,6.74
		c-3.77,1.66-7.81,2.49-12.12,2.49h-31.14v-5.21h31.14c3.62,0,7-0.68,10.14-2.04c3.13-1.36,5.89-3.23,8.27-5.61
		c2.38-2.38,4.25-5.13,5.61-8.27c1.36-3.13,2.04-6.51,2.04-10.14c0-3.55-0.68-6.91-2.04-10.08c-1.36-3.17-3.23-5.93-5.61-8.27
		c-2.38-2.34-5.13-4.19-8.27-5.55c-3.13-1.36-6.51-2.04-10.14-2.04h-31.14v-5.21h31.14c4.3,0,8.34,0.81,12.12,2.43
		c3.78,1.62,7.08,3.85,9.91,6.68c2.83,2.83,5.08,6.13,6.74,9.91C1411.08,440.1,1411.91,444.14,1411.91,448.44z"/>
</g>
<g>
	<path d="M1273.16,437.33c1.52-3.46,3.59-6.5,6.18-9.09c2.6-2.6,5.63-4.64,9.09-6.13c3.46-1.49,7.17-2.23,11.12-2.23h28.58v4.78
		h-28.58c-3.33,0-6.43,0.62-9.3,1.87c-2.88,1.25-5.4,2.95-7.59,5.09c-2.18,2.15-3.9,4.68-5.14,7.59c-1.25,2.91-1.87,5.99-1.87,9.25
		c0,3.33,0.62,6.43,1.87,9.3c1.25,2.88,2.96,5.4,5.14,7.59c2.18,2.18,4.71,3.9,7.59,5.14c2.87,1.25,5.98,1.87,9.3,1.87h28.58v4.78
		h-28.58c-3.95,0-7.66-0.76-11.12-2.29c-3.47-1.52-6.5-3.59-9.09-6.18c-2.6-2.6-4.66-5.63-6.18-9.09
		c-1.52-3.46-2.29-7.17-2.29-11.12S1271.64,440.79,1273.16,437.33z"/>
</g>
<path class="st4" d="M1859.99,430.5c-6.46,5.32-32.1,27.71-38.15,66.76c-6.64,42.91,15.28,74.24,19.66,80.24"/>
<g>
	<path d="M1895.2,442.59c-9.33,4.15-17.45,9.79-24.36,16.93c-6.91,7.14-12.39,15.55-16.41,25.22c-4.03,9.67-6.05,19.93-6.05,30.75
		c0,10.83,2.01,21.08,6.05,30.75c4.03,9.67,9.5,18.09,16.41,25.22c6.91,7.14,15.03,12.78,24.36,16.93s19.29,6.22,29.89,6.22H2017
		v15.89h-91.91c-12.67,0-24.59-2.47-35.76-7.43c-11.18-4.95-20.96-11.75-29.37-20.39c-8.41-8.64-15.03-18.71-19.87-30.23
		c-4.84-11.52-7.26-23.84-7.26-36.97c0-13.13,2.42-25.45,7.26-36.97c4.84-11.52,11.46-21.6,19.87-30.23
		c8.41-8.64,18.19-15.43,29.37-20.39c11.17-4.95,23.09-7.43,35.76-7.43H2017v15.89h-91.91
		C1914.49,436.37,1904.53,438.45,1895.2,442.59z M1917.14,523.45v-15.89H2017v15.89H1917.14z"/>
</g>
<text transform="matrix(1 0 0 1 202 608.5674)"><tspan x="0" y="0" class="st6 st7">&quot;Drive green, drive with </tspan><tspan x="592.04" y="0" class="st1 st6 st7">us</tspan><tspan x="649" y="0" class="st6 st7">&quot;</tspan></text>
<ellipse cx="484.5" cy="503" rx="52.5" ry="52"/>
<circle class="st8" cx="485" cy="502" r="37.5"/>
</svg>
