<?xml version="1.0" encoding="utf-8"?>
<!-- Generator: Adobe Illustrator 26.0.1, SVG Export Plug-In . SVG Version: 6.00 Build 0)  -->
<svg version="1.1" id="Слой_1" xmlns="http://www.w3.org/2000/svg" xmlns:xlink="http://www.w3.org/1999/xlink" x="0px" y="0px"
	 viewBox="0 0 669.2 153.1" style="enable-background:new 0 0 669.2 153.1;" xml:space="preserve">
<style type="text/css">
	.st0{fill:none;stroke:#000000;stroke-width:3;stroke-linecap:round;stroke-miterlimit:10;}
</style>
<g>
	<path d="M44.2,60.3c-5.1,2.3-9.6,5.4-13.4,9.4c-3.8,3.9-6.8,8.6-9.1,13.9c-2.2,5.3-3.3,11-3.3,17s1.1,11.6,3.3,17
		c2.2,5.3,5.2,10,9.1,13.9c3.8,3.9,8.3,7.1,13.4,9.3s10.6,3.4,16.5,3.4h50.7v8.8H60.6c-7,0-13.6-1.4-19.8-4.1s-11.6-6.5-16.2-11.3
		c-4.6-4.8-8.3-10.3-11-16.7s-4-13.2-4-20.4s1.3-14,4-20.4s6.3-11.9,11-16.7s10.1-8.5,16.2-11.3C47,49.4,53.6,48,60.6,48h50.8v8.8
		H60.6C54.8,56.9,49.3,58,44.2,60.3z M56.3,104.9v-8.8h55.1v8.8H56.3z"/>
	<path d="M130.9,79.9c2.8-6.4,6.6-11.9,11.4-16.7s10.3-8.5,16.7-11.3c6.4-2.7,13.2-4.1,20.4-4.1h52.5v8.8h-52.5
		c-6.1,0-11.8,1.1-17.1,3.4c-5.3,2.3-9.9,5.4-13.9,9.4c-4,3.9-7.1,8.6-9.4,13.9s-3.4,11-3.4,17c0,6.1,1.1,11.8,3.4,17.1
		s5.4,9.9,9.4,13.9s8.6,7.2,13.9,9.4s11,3.4,17.1,3.4h52.5v8.8h-52.5c-7.2,0-14.1-1.4-20.4-4.2c-6.4-2.8-11.9-6.6-16.7-11.3
		s-8.6-10.3-11.4-16.7s-4.2-13.2-4.2-20.4S128.1,86.3,130.9,79.9z"/>
	<path d="M235.9,80.1c2.7-6.4,6.5-11.9,11.3-16.7s10.3-8.5,16.7-11.3c6.4-2.7,13.2-4.1,20.4-4.1s14,1.4,20.4,4.1s11.9,6.5,16.7,11.3
		s8.5,10.3,11.3,16.7c2.7,6.4,4.1,13.2,4.1,20.4s-1.4,14.1-4.1,20.4c-2.7,6.4-6.5,11.9-11.3,16.7s-10.3,8.5-16.7,11.3
		c-6.4,2.7-13.2,4.1-20.4,4.1s-14.1-1.4-20.4-4.1c-6.4-2.7-11.9-6.5-16.7-11.3s-8.5-10.3-11.3-16.7c-2.7-6.4-4.1-13.2-4.1-20.4
		S233.2,86.5,235.9,80.1z M301.3,140.8c5.3-2.3,10-5.4,13.9-9.3c3.9-3.9,7.1-8.6,9.3-13.9c2.3-5.3,3.4-11,3.4-17s-1.1-11.6-3.4-17
		s-5.4-10-9.3-13.9c-3.9-3.9-8.6-7.1-13.9-9.4s-11-3.4-17-3.4s-11.6,1.1-17,3.4c-5.3,2.3-10,5.4-13.9,9.4c-3.9,4-7.1,8.6-9.4,13.9
		s-3.4,11-3.4,17s1.1,11.6,3.4,17c2.3,5.3,5.4,10,9.4,13.9c3.9,3.9,8.6,7.1,13.9,9.3s11,3.4,17,3.4S295.9,143.1,301.3,140.8z"/>
	<path d="M408.7,48.3v8.8h-4.4c-6,0-11.6,1.1-16.9,3.4c-5.3,2.3-9.9,5.4-13.8,9.4s-7.1,8.6-9.3,13.9s-3.4,11-3.4,17v52.3h-8.8v-52.3
		c0-7.2,1.4-14,4.1-20.4c2.7-6.4,6.5-11.9,11.3-16.7s10.3-8.5,16.6-11.3c6.3-2.7,13.1-4.1,20.3-4.1H408.7z"/>
	<path d="M432.2,48.1V153H424V48.1H432.2z"/>
	<path d="M552.2,104.9c-0.5,6.7-2.3,13-5.2,18.9c-3,5.8-6.8,10.9-11.5,15.3c-4.6,4.3-10,7.7-16.1,10.2s-12.6,3.7-19.5,3.7
		c-7.2,0-14.1-1.4-20.4-4.1s-11.9-6.5-16.7-11.3s-8.5-10.3-11.3-16.7c-2.7-6.4-4.1-13.2-4.1-20.4s1.4-14,4.1-20.4
		c2.7-6.4,6.5-11.9,11.3-16.7s10.3-8.5,16.7-11.3c6.4-2.7,13.2-4.1,20.4-4.1c9.2,0,17.5,2.1,25.1,6.4s13.8,10,18.6,17.1V0h8.6
		L552.2,104.9L552.2,104.9z M516.9,140.8c5.3-2.3,10-5.4,13.9-9.3c3.9-3.9,7.1-8.6,9.3-13.9c2.3-5.3,3.4-11,3.4-17s-1.2-11.6-3.4-17
		c-2.3-5.3-5.4-10-9.3-13.9c-3.9-3.9-8.6-7.1-13.9-9.4c-5.3-2.3-11-3.4-17-3.4s-11.6,1.1-17,3.4c-5.3,2.3-10,5.4-13.9,9.4
		s-7.1,8.6-9.3,13.9s-3.4,11-3.4,17s1.2,11.6,3.4,17c2.3,5.3,5.4,10,9.3,13.9s8.6,7.1,13.9,9.3c5.3,2.3,11,3.4,17,3.4
		S511.5,143.1,516.9,140.8z"/>
	<path d="M601.9,60.3c-5.2,2.3-9.6,5.4-13.5,9.4c-3.8,3.9-6.8,8.6-9.1,13.9c-2.2,5.3-3.3,11-3.3,17s1.1,11.6,3.3,17
		c2.2,5.3,5.2,10,9.1,13.9c3.8,3.9,8.3,7.1,13.5,9.3s10.7,3.4,16.5,3.4h50.8v8.8h-50.8c-7,0-13.6-1.4-19.8-4.1s-11.6-6.5-16.2-11.3
		c-4.6-4.8-8.3-10.3-11-16.7s-4-13.2-4-20.4s1.3-14,4-20.4s6.3-11.9,11-16.7c4.6-4.8,10-8.5,16.2-11.3c6.2-2.7,12.8-4.1,19.8-4.1
		h50.8v8.8h-50.8C612.5,56.9,607,58,601.9,60.3z M614,104.9v-8.8h55.1v8.8H614z"/>
</g>
<path class="st0" d="M21.9,58c-2.8,2.2-17.4,13.9-20,35c-2.3,18.9,6.7,32.7,9,36"/>
<path class="st0" d="M166.9,65c-13.8,4.5-23.7,16.7-25,31c-1.4,15.1,7,29.5,21,36"/>
<path class="st0" d="M489.9,67c-13.8,4.5-23.7,16.7-25,31c-1.4,15.1,7,29.5,21,36"/>
<path class="st0" d="M606.9,67c-13.8,4.5-23.7,16.7-25,31c-1.4,15.1,7,29.5,21,36"/>
<path class="st0" d="M392.9,65c-2.8,0.8-11.4,3.5-18,12c-6,7.8-6.8,16-7,19"/>
<path class="st0" d="M536.9,2c0,13.7,0,27.3,0,41"/>
<path class="st0" d="M417.9,84c0,13.7,0,27.3,0,41"/>
<path class="st0" d="M68.9,139c11,0,22,0,33,0"/>
<path class="st0" d="M624.9,91c11,0,22,0,33,0"/>
<ellipse cx="284.3" cy="100.6" rx="37.6" ry="37.2"/>
</svg>
